<svg width="22" height="31" viewBox="0 0 22 31" fill="none" xmlns="http://www.w3.org/2000/svg">
<path d="M10.6928 0.449219C4.7812 0.449219 0 5.23042 0 11.142C0 19.1616 10.6928 31 10.6928 31C10.6928 31 21.3855 19.1616 21.3855 11.142C21.3855 5.23042 16.6044 0.449219 10.6928 0.449219ZM3.05508 11.142C3.05508 6.92598 6.47677 3.5043 10.6928 3.5043C14.9088 3.5043 18.3305 6.92598 18.3305 11.142C18.3305 15.5413 13.9312 22.125 10.6928 26.2341C7.51549 22.1555 3.05508 15.4955 3.05508 11.142Z" fill="#EB6C3F"/>
<path d="M10.6938 14.9625C12.8029 14.9625 14.5127 13.2528 14.5127 11.1437C14.5127 9.03458 12.8029 7.32483 10.6938 7.32483C8.58476 7.32483 6.875 9.03458 6.875 11.1437C6.875 13.2528 8.58476 14.9625 10.6938 14.9625Z" fill="#EB6C3F"/>
</svg>
