<svg width="31" height="34" viewBox="0 0 31 34" fill="none" xmlns="http://www.w3.org/2000/svg">
<path d="M17.0947 3.61092L16.0126 3.07277C16.14 2.2279 16.2671 1.38302 16.3939 0.538145L16.9951 0.308099L16.3466 0L13.6037 1.87221L12.5175 1.33201C12.4722 1.30954 12.4199 1.30595 12.372 1.32204C12.3241 1.33812 12.2846 1.37255 12.2621 1.41777C12.2396 1.46298 12.236 1.51527 12.2521 1.56313C12.2682 1.61099 12.3027 1.65051 12.3479 1.67298L16.9252 3.94777C16.9476 3.95976 16.9722 3.96713 16.9975 3.96945C17.0228 3.97177 17.0484 3.96899 17.0726 3.96127C17.0968 3.95356 17.1193 3.94106 17.1386 3.92453C17.1579 3.908 17.1737 3.88776 17.185 3.86501C17.1964 3.84227 17.203 3.81748 17.2046 3.79212C17.2062 3.76676 17.2027 3.74134 17.1943 3.71736C17.1859 3.69338 17.1727 3.67133 17.1556 3.65252C17.1385 3.63371 17.1178 3.61851 17.0947 3.60784V3.61092Z" fill="#EB6C3F"/>
<path d="M26.1519 28.4035C26.0576 28.0591 25.8402 27.7602 25.5399 27.5622C25.2397 27.3641 24.8769 27.2803 24.5189 27.3264C22.8196 27.5472 19.8863 27.5543 17.4328 25.6472C16.8204 25.1692 14.9445 23.7139 14.4852 21.0715C14.2485 19.6641 14.4466 18.2189 15.0537 16.9245C15.959 15.9997 17.1092 15.1777 18.5442 14.7894C20.8672 14.1611 22.2062 15.1344 24.0709 14.7894C25.9978 14.4324 28.5044 12.6655 30.762 6.14034C30.7721 6.1106 30.7718 6.07839 30.7613 6.0488C30.7508 6.01921 30.7306 5.99393 30.7039 5.97693C30.6773 5.95994 30.6456 5.9522 30.614 5.95495C30.5824 5.95769 30.5526 5.97076 30.5293 5.99209C28.6085 7.77012 26.1713 9.5078 24.3403 8.79578C23.2176 8.35808 23.0962 7.27392 21.9143 6.53165C20.6263 5.72483 18.4136 5.52313 14.3617 7.54017C14.4389 10.8095 14.0262 14.0721 13.137 17.222C12.3476 19.9217 11.2355 22.5188 9.82408 24.9584C8.50411 27.2514 6.9361 29.3959 5.14761 31.3544C4.74549 29.0288 3.51462 27.4928 2.2164 27.3203C1.97962 27.2901 1.18251 27.2316 0.110865 28.0787C0.0785247 28.1035 0.0519336 28.1348 0.0328872 28.1705C0.0138408 28.2063 0.00278308 28.2457 0.000461082 28.286C-0.00186091 28.3264 0.00460647 28.3667 0.0194271 28.4044C0.0342478 28.4421 0.0570764 28.4761 0.0863701 28.5043L4.18415 32.5223C4.3268 32.663 4.49681 32.7737 4.68392 32.8477C4.87104 32.9218 5.07138 32.9576 5.27289 32.9531C5.47439 32.9486 5.67289 32.9038 5.85641 32.8214C6.03992 32.7391 6.20467 32.6208 6.34071 32.4739C8.21859 30.4191 9.86435 28.1682 11.2489 25.7612C11.9149 24.6005 12.5195 23.4065 13.0605 22.1839C13.5708 23.9932 14.6996 25.5837 16.4183 26.9189C18.5963 28.6122 21.0672 29.0368 23.0023 29.0368C23.6271 29.0367 24.2512 28.9935 24.87 28.9077C24.2087 30.7574 24.4618 32.367 25.3334 33.0326C25.4946 33.1556 26.0478 33.5369 27.1858 33.3765C27.2258 33.3712 27.2642 33.3576 27.2984 33.3366C27.3327 33.3155 27.362 33.2876 27.3845 33.2545C27.407 33.2214 27.4221 33.184 27.4288 33.1447C27.4356 33.1054 27.4338 33.0651 27.4236 33.0266C26.999 31.4835 26.5751 29.9425 26.1519 28.4035Z" fill="#87BAC6"/>
<path d="M12.9023 3.23405C12.9031 3.57998 13.0413 3.91343 13.2904 4.17021C13.5394 4.42699 13.8817 4.58894 14.2513 4.62491C14.6209 4.66087 14.9917 4.5683 15.2924 4.36502C15.5931 4.16173 15.8024 3.8621 15.88 3.52379L13.2717 2.31653C13.0337 2.57085 12.9025 2.89673 12.9023 3.23405Z" fill="#EB6C3F"/>
</svg>
